<?xml version="1.0" encoding="iso-8859-1"?>
<!-- Generator: Adobe Illustrator 19.0.0, SVG Export Plug-In . SVG Version: 6.00 Build 0)  -->
<svg version="1.1" id="Layer_1" xmlns="http://www.w3.org/2000/svg" xmlns:xlink="http://www.w3.org/1999/xlink" x="0px" y="0px"
	 viewBox="0 0 496.162 496.162" style="enable-background:new 0 0 496.162 496.162;" xml:space="preserve">
<path style="fill:#EDF2F2;" d="M248.077,0C111.072,0,0.002,111.062,0.002,248.083c0,137.005,111.07,248.079,248.075,248.079
	c137.013,0,248.083-111.074,248.083-248.079C496.16,111.062,385.09,0,248.077,0z"/>
<path style="fill:#578470;" d="M23.413,352.321c39.882,83.65,125.215,141.458,224.06,141.458
	c98.775,0,184.071-57.727,223.977-141.286L23.413,352.321z"/>
<path style="fill:#9F7235;" d="M249.033,241.645c-4.353,0-7.872,3.523-7.872,7.869v136.917c0,4.346,3.52,7.876,7.872,7.876
	c4.346,0,7.873-3.531,7.873-7.876V249.514C256.906,245.168,253.379,241.645,249.033,241.645z"/>
<path style="fill:#B28D5D;" d="M241.161,249.514v136.917c0,4.346,3.52,7.876,7.872,7.876V241.645
	C244.681,241.645,241.161,245.168,241.161,249.514z"/>
<g>
	<path style="fill:#2F8459;" d="M325.998,325.701c-4.369-7.165-68.495-84.917-68.495-84.917c-4.896-9.226-12.838-9.226-17.742,0
		c0,0-63.95,76.727-68.487,84.917c-4.536,8.178-4.261,25.495,0,33.36c7.628,14.123,143.363,14.834,154.725,0
		C331.506,351.873,330.374,332.866,325.998,325.701z"/>
	<path style="fill:#2F8459;" d="M307.07,277.859l-51.732-75.354c-3.703-6.966-9.701-6.966-13.404,0l-51.732,75.354
		c-3.695,6.954-5.057,18.235-1.361,25.197h119.592C312.127,296.094,310.773,284.813,307.07,277.859z"/>
	<path style="fill:#2F8459;" d="M290.14,232.755l-36.745-69.115c-2.632-4.95-6.894-4.95-9.518,0l-36.745,69.115
		c-2.632,4.942-2.632,12.956,0,17.902h83.008C292.779,245.711,292.779,237.697,290.14,232.755z"/>
</g>
<g style="opacity:0.5;">
	<path style="fill:#E4F2F4;" d="M404.79,55.986c-5.982-4.881-12.194-9.501-18.621-13.816c-26.371-17.7-56.323-30.472-88.539-37.002
		c-0.987-0.203-1.997-0.344-2.984-0.536c-15.087-2.865-30.632-4.422-46.553-4.422c-19.884,0-39.193,2.406-57.724,6.824
		c-6.693,1.595-13.273,3.454-19.745,5.577c-28.032,9.211-53.845,23.277-76.467,41.213c-10.918,8.653-21.116,18.17-30.427,28.51
		c-19.386,21.521-35.009,46.465-45.956,73.797c10.458,18.851,29.386,32.675,52.405,35.602c20.604,2.62,40.204-4.051,54.747-16.674
		c10.719,11.215,25.193,18.981,41.779,21.088c14.498,1.844,28.514-0.895,40.617-7.069c10.986,14.494,27.542,24.749,47.005,27.22
		c27.503,3.497,53.239-9.505,67.462-31.252c9.548,7.379,21.077,12.439,33.914,14.073c22.86,2.903,44.488-5.611,59.33-21.035
		c24.236-1.951,45.528-16.471,56.499-37.698C455.658,107.57,432.753,78.8,404.79,55.986z"/>
</g>
<g style="opacity:0.5;">
	<path style="fill:#E4F2F4;" d="M372.972,33.961c-5.661-3.305-11.43-6.45-17.366-9.307c-14.017-6.751-28.781-12.195-44.113-16.238
		c-0.788-0.207-1.576-0.42-2.364-0.62c-15.423-3.902-31.42-6.369-47.838-7.229c-4.376-0.229-8.768-0.356-13.197-0.356
		c-11.797,0-23.396,0.88-34.757,2.475c-21.834,3.06-42.766,8.924-62.397,17.286c-0.948,0.406-1.874,0.861-2.822,1.278
		c-8.684,3.829-17.1,8.14-25.224,12.898C95.504,50.199,71.482,71.341,52.111,96.29c-0.711,0.91-1.445,1.798-2.134,2.716
		c0.902,0.367,1.851,0.654,2.784,0.983c5.906,31.172,31.987,55.822,65.129,58.396c14.979,1.163,29.24-2.353,41.358-9.299
		c12.004,14.333,29.516,24.034,49.629,25.595c28.422,2.207,54.196-12.436,67.707-35.479c10.175,7.096,22.271,11.717,35.536,12.746
		c23.617,1.836,45.406-7.991,59.865-24.577c26.854-3.489,49.431-21.938,58.442-47.25C413.733,62.027,394.362,46.45,372.972,33.961z"
		/>
</g>
<path style="fill:#E4F2F4;" d="M248.093,0.21c-74.669,0-141.588,33.039-187.063,85.242c4.101-0.383,8.117-1.079,12.011-2.077
	c12.555,23.017,36.968,38.639,65.037,38.639c18.729,0,35.789-7.016,48.826-18.487c13.044,11.472,30.097,18.487,48.833,18.487
	c32.116,0,59.383-20.492,69.627-49.082c12.271,9.027,27.381,14.429,43.784,14.429c23.885,0,45.061-11.354,58.595-28.904
	C364.595,22.129,308.914,0.21,248.093,0.21z"/>
<g style="opacity:0.5;">
	<path style="fill:#EDF2F2;" d="M267.356,158.465c-5.294,0-10.397,0.738-15.293,1.997c-10.405-19.081-30.641-32.029-53.905-32.029
		c-15.531,0-29.669,5.814-40.479,15.324c-10.81-9.509-24.948-15.324-40.479-15.324c-26.624,0-49.224,16.988-57.716,40.685
		c-10.175-7.482-22.698-11.961-36.294-11.961c-2.042,0-4.047,0.111-6.036,0.306C6.13,185.544,0.002,216.088,0.002,248.083
		c0,9.402,0.574,18.667,1.592,27.798c1.805,0.681,3.634,1.301,5.516,1.81c7.076,26.08,30.846,45.29,59.168,45.29
		c12.792,0,24.673-3.929,34.504-10.626c11.139,11.38,26.654,18.46,43.837,18.46c24.283,0,45.199-14.138,55.152-34.599
		c9.112,5.355,19.693,8.48,31.023,8.48c20.174,0,38.022-9.785,49.208-24.818c27.825-5.833,48.718-30.495,48.718-60.049
		C328.721,185.938,301.248,158.465,267.356,158.465z"/>
</g>
<path style="fill:#EDF2F2;" d="M446.745,99.483c-6.136-1.955-12.653-3.041-19.439-3.041c-16.227,0-31.008,6.078-42.3,16.013
	c-11.292-9.935-26.065-16.013-42.3-16.013c-27.817,0-51.427,17.749-60.309,42.514c-10.627-7.819-23.717-12.497-37.924-12.497
	c-35.414,0-64.118,28.708-64.118,64.123c0,29.596,20.066,54.437,47.318,61.827c7.39,27.255,32.231,47.326,61.823,47.326
	c13.373,0,25.782-4.104,36.057-11.104c11.645,11.893,27.848,19.291,45.812,19.291c25.369,0,47.234-14.773,57.631-36.152
	c9.518,5.596,20.572,8.859,32.415,8.859c12.363,0,23.878-3.535,33.655-9.609c0.695-7.559,1.094-15.198,1.094-22.936
	C496.16,192.341,477.776,140.899,446.745,99.483z"/>
<g>
</g>
<g>
</g>
<g>
</g>
<g>
</g>
<g>
</g>
<g>
</g>
<g>
</g>
<g>
</g>
<g>
</g>
<g>
</g>
<g>
</g>
<g>
</g>
<g>
</g>
<g>
</g>
<g>
</g>
</svg>
