<?xml version="1.0" encoding="iso-8859-1"?>
<!-- Generator: Adobe Illustrator 19.0.0, SVG Export Plug-In . SVG Version: 6.00 Build 0)  -->
<svg version="1.1" id="Layer_1" xmlns="http://www.w3.org/2000/svg" xmlns:xlink="http://www.w3.org/1999/xlink" x="0px" y="0px"
	 viewBox="0 0 496.166 496.166" style="enable-background:new 0 0 496.166 496.166;" xml:space="preserve">
<path style="fill:#334D5C;" d="M248.079,0C111.074,0,0.004,111.062,0.004,248.083c0,137.005,111.07,248.083,248.075,248.083
	c137.013,0,248.083-111.078,248.083-248.083C496.162,111.062,385.092,0,248.079,0z"/>
<path style="fill:#BFBFBF;" d="M248.695,83.016c-56.79,0-102.823,46.033-102.823,102.823c0,56.781,46.033,102.822,102.823,102.822
	c56.782,0,102.822-46.041,102.822-102.822C351.518,129.049,305.477,83.016,248.695,83.016z"/>
<g style="opacity:0.9;">
	<path style="fill:#8EA1A8;" d="M386.526,225.537c-2.957-33.766-32.721-58.737-66.486-55.784c-5.268,0.463-10.29,1.646-15.06,3.328
		c-12.027-18.101-33.318-29.236-56.492-27.205c-15.473,1.354-29.049,8.378-38.991,18.798c-11.598-8.534-26.188-13.091-41.661-11.736
		c-26.521,2.318-47.548,21.215-53.944,45.566c-10.791-6.571-23.655-9.938-37.2-8.752c-33.762,2.961-58.733,32.721-55.776,66.486
		c2.467,28.212,23.675,50.218,50.275,54.992c9.318,25.361,34.68,42.426,62.891,39.954c12.75-1.112,24.233-6.059,33.448-13.595
		c12.088,10.363,28.158,16.066,45.276,14.566c24.191-2.119,43.799-18.028,51.924-39.281c9.544,4.549,20.358,6.732,31.646,5.746
		c20.105-1.76,37.032-13.067,46.859-29.019C370.441,281.362,389.104,254.977,386.526,225.537z"/>
</g>
<g style="opacity:0.9;">
	<path style="fill:#8EA1A8;" d="M458.506,289.992c-2.227-25.426-24.643-44.228-50.061-42.001c-3.975,0.348-7.754,1.239-11.35,2.498
		c-9.054-13.626-25.086-22.011-42.537-20.484c-11.656,1.021-21.88,6.315-29.367,14.157c-8.737-6.423-19.719-9.857-31.371-8.836
		c-19.972,1.748-35.809,15.966-40.625,34.316c-8.125-4.95-17.818-7.486-28.02-6.595c-25.418,2.226-44.228,24.638-42.001,50.072
		c1.863,21.241,17.826,37.813,37.862,41.404c7.019,19.107,26.119,31.956,47.364,30.097c9.594-0.841,18.25-4.57,25.186-10.247
		c9.108,7.811,21.203,12.106,34.102,10.975c18.208-1.596,32.978-13.576,39.098-29.581c7.184,3.42,15.332,5.072,23.828,4.326
		c15.14-1.323,27.894-9.838,35.288-21.85C446.396,332.04,460.45,312.164,458.506,289.992z"/>
</g>
<g>
</g>
<g>
</g>
<g>
</g>
<g>
</g>
<g>
</g>
<g>
</g>
<g>
</g>
<g>
</g>
<g>
</g>
<g>
</g>
<g>
</g>
<g>
</g>
<g>
</g>
<g>
</g>
<g>
</g>
</svg>
