<?xml version="1.0" encoding="iso-8859-1"?>
<!-- Generator: Adobe Illustrator 19.0.0, SVG Export Plug-In . SVG Version: 6.00 Build 0)  -->
<svg version="1.1" id="Layer_1" xmlns="http://www.w3.org/2000/svg" xmlns:xlink="http://www.w3.org/1999/xlink" x="0px" y="0px"
	 viewBox="0 0 496.166 496.166" style="enable-background:new 0 0 496.166 496.166;" xml:space="preserve">
<path style="fill:#CCB08B;" d="M248.079,0C111.074,0,0.004,111.062,0.004,248.083c0,137.005,111.07,248.083,248.075,248.083
	c137.013,0,248.083-111.078,248.083-248.083C496.162,111.062,385.092,0,248.079,0z"/>
<g style="opacity:0.8;">
	<path style="fill:#C99A67;" d="M406.314,188.44h-136.47c-11.3,0-20.473-5.249-20.473-11.729s9.173-11.728,20.473-11.728
		c0,0,21.161-0.176,21.161-0.268c9.342-1.086,16.372-5.818,16.372-11.499c0-6.476-9.165-11.728-20.465-11.728l-92.066,0.099
		l-97.229,0.107c-15.607,0-28.254,10.489-28.254,23.433c0,12.027,10.933,21.919,24.994,23.265h25.354
		c18.07,0,32.721,8.393,32.721,18.744c0,10.358-14.65,18.751-32.721,18.751l-51.618,0.023
		c-14.552,0.941-26.012,11.024-26.012,23.341c0,12.937,12.646,23.434,28.245,23.434h284.155c11.055,0,20.021-5.458,20.021-11.797
		c0-5.516-7.872-10.55-15.852-11.22c-7.987-0.677-31.367,0.677-37.136-0.516c-8.37-1.473-14.46-5.937-14.46-11.216
		c0-5.784,7.314-10.581,16.923-11.541c-1.453-0.256,82.335-0.485,82.335-0.485c18.056,0,32.69-8.385,32.69-18.736
		C439.005,196.829,424.37,188.44,406.314,188.44z"/>
</g>
<g style="opacity:0.78;">
	<path style="fill:#B78451;" d="M246.932,318.356c-0.321,0.054-0.65,0.096-0.979,0.142
		C245.952,318.498,247.788,318.437,246.932,318.356z"/>
	<path style="fill:#B78451;" d="M438.883,300.757l-39.094-0.023c-13.688,0-24.78-6.358-24.78-14.207
		c0-7.838,11.093-14.192,24.78-14.192h19.202c10.649-1.018,18.936-8.515,18.936-17.626c0-9.8-9.587-17.746-21.398-17.746
		l-73.651-0.08l-69.734-0.077c-8.562,0-15.5,3.979-15.5,8.882c0,4.303,5.324,7.888,12.401,8.71c0,0.069,16.027,0.203,16.027,0.203
		c8.562,0,15.508,3.979,15.508,8.882c0,4.912-6.946,8.882-15.508,8.882H182.706c-13.68,0-24.758,6.357-24.758,14.195
		s11.078,14.196,24.758,14.196c0,0,63.461,0.168,62.358,0.363c7.284,0.727,12.815,4.361,12.815,8.741
		c0,4.001-4.606,7.383-10.948,8.496c-4.368,0.903-22.079-0.118-28.123,0.394c-6.052,0.505-12.012,4.315-12.012,8.5
		c0,4.797,6.794,8.928,15.163,8.928h215.232c11.812,0,21.398-7.949,21.398-17.75C458.591,309.104,449.907,301.468,438.883,300.757z"
		/>
</g>
<g>
</g>
<g>
</g>
<g>
</g>
<g>
</g>
<g>
</g>
<g>
</g>
<g>
</g>
<g>
</g>
<g>
</g>
<g>
</g>
<g>
</g>
<g>
</g>
<g>
</g>
<g>
</g>
<g>
</g>
</svg>
