<?xml version="1.0" encoding="iso-8859-1"?>
<!-- Generator: Adobe Illustrator 19.0.0, SVG Export Plug-In . SVG Version: 6.00 Build 0)  -->
<svg version="1.1" id="Layer_1" xmlns="http://www.w3.org/2000/svg" xmlns:xlink="http://www.w3.org/1999/xlink" x="0px" y="0px"
	 viewBox="0 0 496.162 496.162" style="enable-background:new 0 0 496.162 496.162;" xml:space="preserve">
<path style="fill:#DCE5E5;" d="M248.077,0C111.072,0,0.002,111.062,0.002,248.083c0,137.005,111.07,248.079,248.075,248.079
	c137.013,0,248.083-111.074,248.083-248.079C496.16,111.062,385.09,0,248.077,0z"/>
<path style="fill:#EFEFEF;" d="M491.845,202.13c-16.854-27.974-38.358-52.823-63.491-73.441
	c-16.815,3.787-31.451,12.642-42.46,24.753c-15.714-10.998-35.292-16.602-55.864-14.299c-35.246,3.948-62.649,29.787-70.393,62.424
	c-14.581-8.4-31.818-12.474-49.827-10.458c-5.08,0.57-9.961,1.648-14.682,3.079c-10.42-14.035-25.774-24.497-44.212-28.418
	c-18.415-3.917-36.661-0.585-51.878,7.972c-10.428-14.012-25.729-24.478-44.151-28.395c-1.584-0.336-3.167-0.582-4.751-0.815
	c-17.681,17.153-33.089,36.616-45.857,57.842c-2.762,14.823-4.276,30.085-4.276,45.708c0,54.472,17.604,104.804,47.364,145.727
	c24.872,1.515,48.352-9.643,63.14-28.617c9.448,8.649,21.215,15.026,34.657,17.883c23.938,5.095,47.578-2.004,64.631-17.022
	c1.033,0.004,2.043-0.084,3.068-0.126c16.081,26.05,46.124,41.994,78.57,38.36c16.953-1.894,32.086-8.852,44.12-19.184
	c16.434,13.419,38.023,20.496,60.775,17.948c32.147-3.596,57.77-25.418,67.898-53.985c2.893,1.293,5.876,2.398,8.921,3.358
	c14.734-31.727,23.013-67.061,23.013-104.341C496.16,232.376,494.638,217.03,491.845,202.13z"/>
<path style="fill:#E2E2E2;" d="M405.341,56.224c-14.674,3.301-27.442,11.028-37.044,21.594
	c-13.709-9.594-30.785-14.482-48.733-12.474c-30.747,3.442-54.647,25.985-61.403,54.456c-12.715-7.329-27.756-10.883-43.47-9.127
	c-4.422,0.497-8.684,1.438-12.807,2.689c-9.089-12.245-22.478-21.368-38.566-24.792c-16.059-3.416-31.979-0.509-45.253,6.955
	c-9.089-12.222-22.438-21.353-38.513-24.769c-1.385-0.294-2.762-0.509-4.146-0.711C28.929,115.132,0.002,178.211,0.002,248.083
	c0,4.705,0.161,9.375,0.421,14.016c7.543-0.321,14.872-1.871,21.674-4.655c9.027,14.226,23.518,24.967,41.298,28.747
	c25.124,5.344,49.881-4.678,64.677-23.659c8.239,7.547,18.507,13.109,30.228,15.6c20.886,4.445,41.504-1.748,56.384-14.85
	c0.896,0.004,1.782-0.073,2.678-0.107c14.031,22.722,40.234,36.631,68.541,33.459c14.78-1.652,27.985-7.719,38.481-16.731
	c14.338,11.702,33.165,17.875,53.019,15.653c28.047-3.137,50.394-22.171,59.23-47.093c11.215,5.011,23.839,7.257,36.929,5.792
	c8.071-0.906,15.66-3.148,22.592-6.453C496.068,170.591,460.715,101.664,405.341,56.224z"/>
<path style="fill:#D8D8D8;" d="M404.774,55.78c-5.982-4.885-12.194-9.502-18.621-13.82c-26.371-17.696-56.315-30.472-88.539-37.002
	c-0.987-0.199-1.989-0.344-2.983-0.532C279.544,1.561,263.998,0,248.077,0c-19.884,0-39.193,2.406-57.723,6.824
	c-6.687,1.595-13.274,3.455-19.746,5.581c-28.031,9.211-53.845,23.277-76.467,41.209c-10.917,8.657-21.115,18.17-30.426,28.51
	c-19.387,21.521-35.009,46.469-45.957,73.8c10.466,18.847,29.386,32.675,52.406,35.602c20.603,2.616,40.203-4.055,54.747-16.678
	c10.718,11.215,25.192,18.981,41.787,21.092c14.489,1.84,28.513-0.899,40.616-7.073c10.979,14.494,27.534,24.75,46.997,27.224
	c27.504,3.493,53.247-9.509,67.462-31.252c9.548,7.375,21.077,12.439,33.915,14.069c22.859,2.903,44.495-5.607,59.329-21.031
	c24.237-1.955,45.528-16.475,56.499-37.698C455.643,107.36,432.737,78.59,404.774,55.78z"/>
<path style="fill:#CECECE;" d="M372.956,33.75c-5.661-3.305-11.43-6.45-17.366-9.307c-14.016-6.751-28.781-12.195-44.113-16.234
	c-0.788-0.21-1.568-0.42-2.363-0.62c-15.424-3.905-31.421-6.373-47.839-7.233C256.907,0.127,252.507,0,248.078,0
	c-11.797,0-23.388,0.88-34.756,2.475c-21.835,3.064-42.767,8.924-62.391,17.286c-0.956,0.406-1.882,0.861-2.83,1.282
	c-8.684,3.825-17.099,8.136-25.224,12.898C95.488,49.988,71.473,71.13,52.095,96.083c-0.712,0.906-1.438,1.794-2.135,2.712
	c0.91,0.367,1.859,0.654,2.784,0.987c5.906,31.172,31.987,55.818,65.137,58.396c14.979,1.163,29.232-2.353,41.352-9.303
	c12.004,14.333,29.516,24.034,49.628,25.599c28.422,2.204,54.196-12.44,67.707-35.483c10.176,7.1,22.271,11.717,35.537,12.75
	c23.617,1.836,45.405-7.995,59.865-24.577c26.853-3.489,49.43-21.942,58.442-47.253C413.718,61.816,394.354,46.244,372.956,33.75z"
	/>
<path style="fill:#B5B5B5;" d="M248.077,0c-74.669,0-141.58,33.039-187.063,85.242c4.101-0.379,8.117-1.075,12.012-2.077
	c12.554,23.02,36.967,38.639,65.036,38.639c18.729,0,35.789-7.012,48.826-18.483c13.044,11.472,30.104,18.483,48.833,18.483
	c32.117,0,59.383-20.488,69.635-49.082c12.271,9.031,27.374,14.433,43.776,14.433c23.885,0,45.062-11.354,58.604-28.904
	C364.579,21.923,308.898,0,248.077,0z"/>
<g>
</g>
<g>
</g>
<g>
</g>
<g>
</g>
<g>
</g>
<g>
</g>
<g>
</g>
<g>
</g>
<g>
</g>
<g>
</g>
<g>
</g>
<g>
</g>
<g>
</g>
<g>
</g>
<g>
</g>
</svg>
