<?xml version="1.0" encoding="iso-8859-1"?>
<!-- Generator: Adobe Illustrator 19.0.0, SVG Export Plug-In . SVG Version: 6.00 Build 0)  -->
<svg version="1.1" id="Layer_1" xmlns="http://www.w3.org/2000/svg" xmlns:xlink="http://www.w3.org/1999/xlink" x="0px" y="0px"
	 viewBox="0 0 496.161 496.161" style="enable-background:new 0 0 496.161 496.161;" xml:space="preserve">
<path style="fill:#48A1AF;" d="M248.077,0C111.072,0,0.002,111.063,0.002,248.083c0,137.005,111.07,248.078,248.075,248.078
	c137.013,0,248.083-111.073,248.083-248.078C496.16,111.063,385.09,0,248.077,0z"/>
<g style="opacity:0.5;">
	<path style="fill:#E4F2F4;" d="M404.775,55.78c-5.987-4.885-12.195-9.502-18.625-13.82c-26.368-17.695-56.319-30.472-88.536-37.002
		c-0.987-0.198-1.997-0.344-2.984-0.531c-15.086-2.865-30.632-4.426-46.553-4.426c-19.884,0-39.193,2.406-57.723,6.824
		c-6.694,1.595-13.273,3.454-19.746,5.581c-28.032,9.211-53.844,23.276-76.471,41.209c-10.914,8.657-21.111,18.17-30.426,28.51
		c-19.382,21.521-35.005,46.47-45.953,73.801c10.458,18.847,29.382,32.675,52.406,35.602c20.603,2.616,40.203-4.055,54.743-16.678
		c10.718,11.215,25.197,18.98,41.783,21.092c14.498,1.84,28.513-0.898,40.616-7.072c10.982,14.493,27.538,24.749,47.005,27.224
		c27.503,3.493,53.24-9.509,67.458-31.252c9.548,7.375,21.081,12.439,33.919,14.069c22.859,2.903,44.487-5.607,59.326-21.031
		c24.241-1.955,45.528-16.476,56.502-37.698C455.643,107.36,432.737,78.59,404.775,55.78z"/>
</g>
<g style="opacity:0.5;">
	<path style="fill:#E4F2F4;" d="M372.953,33.75c-5.662-3.305-11.426-6.449-17.363-9.307c-14.02-6.752-28.781-12.195-44.113-16.234
		c-0.788-0.211-1.576-0.421-2.364-0.62c-15.427-3.905-31.42-6.372-47.842-7.233c-4.372-0.229-8.768-0.355-13.193-0.355
		c-11.801,0-23.395,0.88-34.756,2.475c-21.834,3.064-42.77,8.925-62.397,17.286c-0.948,0.406-1.878,0.861-2.827,1.282
		c-8.68,3.825-17.095,8.136-25.22,12.898C95.489,49.989,71.465,71.131,52.09,96.084c-0.708,0.906-1.442,1.794-2.134,2.712
		c0.907,0.367,1.855,0.654,2.785,0.986c5.906,31.172,31.987,55.818,65.133,58.396c14.979,1.163,29.24-2.353,41.358-9.303
		c12.004,14.333,29.516,24.034,49.629,25.599c28.417,2.203,54.196-12.439,67.707-35.483c10.175,7.1,22.271,11.717,35.533,12.75
		c23.621,1.836,45.406-7.995,59.865-24.577c26.857-3.489,49.43-21.942,58.446-47.254C413.714,61.817,394.346,46.244,372.953,33.75z"
		/>
</g>
<path style="fill:#E4F2F4;" d="M248.077,0C173.408,0,106.489,33.039,61.014,85.242c4.101-0.379,8.117-1.075,12.012-2.077
	c12.554,23.02,36.967,38.639,65.033,38.639c18.732,0,35.793-7.012,48.83-18.483c13.04,11.472,30.097,18.483,48.833,18.483
	c32.117,0,59.379-20.488,69.627-49.082c12.271,9.031,27.381,14.433,43.784,14.433c23.881,0,45.062-11.354,58.595-28.903
	C364.578,21.923,308.898,0,248.077,0z"/>
<g>
	<path style="fill:#7CB7C1;" d="M384.967,231.374c-3.061-3.061-13.285,2.207-22.841,11.763
		c-9.555,9.556-14.819,19.784-11.763,22.841c3.061,3.06,13.285-2.207,22.841-11.763
		C382.764,244.664,388.023,234.435,384.967,231.374z"/>
	<path style="fill:#7CB7C1;" d="M223.064,231.374c-3.06-3.061-13.285,2.207-22.841,11.763c-9.555,9.556-14.819,19.784-11.762,22.841
		c3.06,3.06,13.285-2.207,22.84-11.763C220.86,244.664,226.12,234.435,223.064,231.374z"/>
	<path style="fill:#7CB7C1;" d="M63.119,231.374c-3.06-3.061-13.285,2.207-22.84,11.763c-9.556,9.556-14.819,19.784-11.763,22.841
		c3.06,3.06,13.285-2.207,22.84-11.763C60.915,244.664,66.175,234.435,63.119,231.374z"/>
	<path style="fill:#7CB7C1;" d="M140.152,231.374c-3.061-3.061-13.285,2.207-22.841,11.763s-14.819,19.784-11.763,22.841
		c3.06,3.06,13.285-2.207,22.841-11.763C137.948,244.664,143.208,234.435,140.152,231.374z"/>
	<path style="fill:#7CB7C1;" d="M305.973,231.374c-3.061-3.061-13.285,2.207-22.841,11.763s-14.819,19.784-11.763,22.841
		c3.06,3.06,13.285-2.207,22.841-11.763C303.768,244.664,309.029,234.435,305.973,231.374z"/>
	<path style="fill:#7CB7C1;" d="M463.966,231.374c-3.06-3.061-13.285,2.207-22.841,11.763c-9.555,9.556-14.819,19.784-11.763,22.841
		c3.061,3.06,13.285-2.207,22.841-11.763C461.763,244.664,467.022,234.435,463.966,231.374z"/>
	<path style="fill:#7CB7C1;" d="M416.303,290.13c-3.06-3.061-13.285,2.207-22.841,11.763c-9.555,9.556-14.819,19.784-11.763,22.841
		c3.061,3.06,13.285-2.207,22.841-11.763C414.1,303.419,419.359,293.191,416.303,290.13z"/>
	<path style="fill:#7CB7C1;" d="M254.4,290.13c-3.06-3.061-13.285,2.207-22.841,11.763c-9.555,9.556-14.819,19.784-11.762,22.841
		c3.06,3.06,13.285-2.207,22.84-11.763C252.197,303.419,257.456,293.191,254.4,290.13z"/>
	<path style="fill:#7CB7C1;" d="M94.455,290.13c-3.06-3.061-13.285,2.207-22.84,11.763c-9.556,9.556-14.819,19.784-11.763,22.841
		c3.06,3.06,13.285-2.207,22.84-11.763C92.252,303.419,97.512,293.191,94.455,290.13z"/>
	<path style="fill:#7CB7C1;" d="M171.488,290.13c-3.061-3.061-13.285,2.207-22.841,11.763s-14.819,19.784-11.763,22.841
		c3.06,3.06,13.285-2.207,22.841-11.763C169.285,303.419,174.544,293.191,171.488,290.13z"/>
	<path style="fill:#7CB7C1;" d="M337.309,290.13c-3.061-3.061-13.285,2.207-22.841,11.763s-14.819,19.784-11.763,22.841
		c3.06,3.06,13.285-2.207,22.841-11.763C335.104,303.419,340.365,293.191,337.309,290.13z"/>
	<path style="fill:#7CB7C1;" d="M449.603,351.498c-3.06-3.06-13.285,2.207-22.841,11.763c-9.555,9.556-14.819,19.78-11.763,22.841
		c3.061,3.061,13.285-2.207,22.841-11.763C447.398,364.784,452.659,354.555,449.603,351.498z"/>
	<path style="fill:#7CB7C1;" d="M287.699,351.498c-3.06-3.06-13.285,2.207-22.841,11.763c-9.555,9.556-14.819,19.78-11.762,22.841
		c3.06,3.061,13.285-2.207,22.84-11.763C285.496,364.784,290.755,354.555,287.699,351.498z"/>
	<path style="fill:#7CB7C1;" d="M127.754,351.498c-3.06-3.06-13.285,2.207-22.84,11.763c-9.556,9.556-14.819,19.78-11.763,22.841
		c3.06,3.061,13.285-2.207,22.84-11.763C125.551,364.784,130.81,354.555,127.754,351.498z"/>
	<path style="fill:#7CB7C1;" d="M204.787,351.498c-3.061-3.06-13.285,2.207-22.841,11.763s-14.819,19.78-11.763,22.841
		c3.06,3.061,13.285-2.207,22.841-11.763C202.583,364.784,207.843,354.555,204.787,351.498z"/>
	<path style="fill:#7CB7C1;" d="M370.608,351.498c-3.061-3.06-13.285,2.207-22.841,11.763s-14.819,19.78-11.763,22.841
		c3.06,3.061,13.285-2.207,22.841-11.763C368.404,364.784,373.664,354.555,370.608,351.498z"/>
	<path style="fill:#7CB7C1;" d="M327.523,412.868c-3.06-3.061-13.285,2.207-22.841,11.763c-9.555,9.555-14.819,19.779-11.762,22.84
		c3.06,3.061,13.285-2.207,22.84-11.763C325.32,426.153,330.579,415.923,327.523,412.868z"/>
	<path style="fill:#7CB7C1;" d="M167.579,412.868c-3.06-3.061-13.285,2.207-22.84,11.763c-9.556,9.555-14.819,19.779-11.763,22.84
		c3.06,3.061,13.285-2.207,22.84-11.763C165.375,426.153,170.635,415.923,167.579,412.868z"/>
	<path style="fill:#7CB7C1;" d="M244.611,412.868c-3.06-3.061-13.285,2.207-22.84,11.763c-9.556,9.555-14.819,19.779-11.763,22.84
		c3.06,3.061,13.285-2.207,22.841-11.763C242.408,426.153,247.668,415.923,244.611,412.868z"/>
</g>
<g>
</g>
<g>
</g>
<g>
</g>
<g>
</g>
<g>
</g>
<g>
</g>
<g>
</g>
<g>
</g>
<g>
</g>
<g>
</g>
<g>
</g>
<g>
</g>
<g>
</g>
<g>
</g>
<g>
</g>
</svg>
