<?xml version="1.0" encoding="iso-8859-1"?>
<!-- Generator: Adobe Illustrator 19.0.0, SVG Export Plug-In . SVG Version: 6.00 Build 0)  -->
<svg version="1.1" id="Layer_1" xmlns="http://www.w3.org/2000/svg" xmlns:xlink="http://www.w3.org/1999/xlink" x="0px" y="0px"
	 viewBox="0 0 496.162 496.162" style="enable-background:new 0 0 496.162 496.162;" xml:space="preserve">
<g>
	<path style="fill:#A3D5E0;" d="M248.077,0C111.072,0,0.002,111.062,0.002,248.083c0,137.005,111.07,248.079,248.075,248.079
		c137.013,0,248.083-111.074,248.083-248.079C496.16,111.062,385.09,0,248.077,0z"/>
	<path style="fill:#A3D5E0;" d="M469.984,350.274l3.293,1.863c0.784-1.698,1.564-3.396,2.311-5.114L469.984,350.274z"/>
	<path style="fill:#A3D5E0;" d="M446.34,362.603l-26.429,13.484l14.651,8.102c1.235,0.685,2.008,1.982,2.02,3.397
		c0.012,1.412-0.738,2.724-1.966,3.428l-14.659,8.423l17.727,8.553c9.459-11.204,17.917-23.257,25.296-36.03L446.34,362.603z"/>
	<path style="fill:#A3D5E0;" d="M410.995,415.285v15.875c0,1.388-0.734,2.67-1.932,3.374c-1.194,0.704-2.67,0.723-3.887,0.05
		l-13.774-7.65l1.893,22.229c10.638-7.696,20.672-16.169,29.948-25.419L410.995,415.285z"/>
	<path style="fill:#A3D5E0;" d="M483.028,327.694l-3.29-5.692c-0.524-0.91-1.393-1.568-2.41-1.832
		c-1.006-0.256-2.096-0.107-2.995,0.432l-15.435,9.269v-30.828c0-1.381-0.727-2.663-1.917-3.366
		c-1.19-0.708-2.663-0.738-3.875-0.073l-15.668,8.538c-1.258,0.685-2.042,2.004-2.042,3.439v35.689l-24.401,16.716v-16.357
		c0-1.4-0.746-2.693-1.958-3.393c-1.209-0.7-2.708-0.7-3.917,0l-13.702,7.911l2.482-28.973l30.338-18.197
		c1.178-0.708,1.901-1.981,1.901-3.358v-17.098c0-1.389-0.734-2.67-1.932-3.374c-1.197-0.708-2.67-0.727-3.886-0.049l-26.238,14.57
		v-14.712c0-2.161-1.752-3.917-3.917-3.917h-16.379c-2.166,0-3.917,1.756-3.917,3.917v14.781l-26.964-14.655
		c-1.22-0.662-2.686-0.635-3.871,0.073c-1.19,0.708-1.917,1.985-1.917,3.366v17.099c0,1.388,0.734,2.674,1.936,3.377l30.973,18.186
		l2.096,29.19l-14.777-8.171c-1.213-0.673-2.693-0.654-3.883,0.054c-1.193,0.704-1.928,1.989-1.928,3.374v16.353l-24.394-16.708
		v-35.694c0-1.377-0.723-2.651-1.901-3.359l-14.238-8.538c-1.212-0.727-2.72-0.742-3.948-0.05c-1.228,0.696-1.985,1.997-1.985,3.408
		v30.942l-16.196-9.41c-0.918-0.536-2.023-0.677-3.049-0.378c-1.025,0.294-1.89,0.998-2.383,1.943l-7.123,13.549
		c-0.956,1.817-0.344,4.066,1.4,5.148l15.025,9.322l-27.006,15.271c-1.212,0.685-1.97,1.966-1.989,3.358
		c-0.019,1.393,0.708,2.693,1.901,3.409l14.245,8.545c1.193,0.723,2.682,0.746,3.906,0.073l33.077-18.22l26.211,13.477
		l-14.674,8.117c-1.235,0.685-2.008,1.982-2.02,3.397c-0.012,1.412,0.738,2.724,1.966,3.428l14.682,8.438l-26.188,12.727
		l-33.165-16.923c-1.213-0.62-2.667-0.563-3.822,0.149l-12.818,7.842c-1.167,0.715-1.878,1.989-1.871,3.358
		c0.008,1.37,0.727,2.636,1.901,3.34l26.195,15.71l-16.089,8.829c-0.911,0.498-1.588,1.343-1.878,2.345
		c-0.287,0.998-0.168,2.073,0.337,2.983l7.107,12.83c0.505,0.914,1.354,1.587,2.36,1.871c0.991,0.283,2.073,0.161,2.987-0.352
		l16.969-9.548v30.346c0,1.385,0.73,2.667,1.924,3.374c1.186,0.7,2.667,0.727,3.883,0.057l14.237-7.834
		c1.251-0.688,2.027-2,2.027-3.431v-34.99l24.394-16.846v15.871c0,1.377,0.723,2.651,1.901,3.358c1.174,0.704,2.636,0.742,3.856,0.1
		l14.846-7.896l-2.108,29.474l-30.923,17.489c-1.228,0.696-1.989,1.997-1.989,3.409v2.54c20.125-7.743,38.975-18.029,56.177-30.472
		l-1.893-22.229l13.774,7.65c1.217,0.673,2.693,0.654,3.887-0.05c1.197-0.704,1.932-1.985,1.932-3.374v-15.875l12.249,8.458
		c5.045-5.03,9.842-10.305,14.44-15.752l-17.727-8.553l14.659-8.423c1.228-0.704,1.978-2.016,1.966-3.428
		c-0.011-1.415-0.784-2.712-2.02-3.397l-14.651-8.102l26.429-13.484l16.64,9.356c3.718-6.434,7.157-13.041,10.297-19.823
		l-3.293-1.863l5.604-3.251C478.334,340.715,480.806,334.262,483.028,327.694z"/>
</g>
<g style="opacity:0.5;">
	<path style="fill:#E4F2F4;" d="M483.028,327.694l-3.29-5.692c-0.524-0.91-1.393-1.568-2.41-1.832
		c-1.006-0.256-2.096-0.107-2.995,0.432l-15.435,9.269v-30.828c0-1.381-0.727-2.663-1.917-3.366
		c-1.19-0.708-2.663-0.738-3.875-0.073l-15.668,8.538c-1.258,0.685-2.042,2.004-2.042,3.439v35.689l-24.401,16.716v-16.357
		c0-1.4-0.746-2.693-1.958-3.393c-1.209-0.7-2.708-0.7-3.917,0l-13.702,7.911l2.482-28.973l30.338-18.197
		c1.178-0.708,1.901-1.981,1.901-3.358v-17.098c0-1.389-0.734-2.67-1.932-3.374c-1.197-0.708-2.67-0.727-3.886-0.049l-26.238,14.57
		v-14.712c0-2.161-1.752-3.917-3.917-3.917h-16.379c-2.166,0-3.917,1.756-3.917,3.917v14.781l-26.964-14.655
		c-1.22-0.662-2.686-0.635-3.871,0.073c-1.19,0.708-1.917,1.985-1.917,3.366v17.099c0,1.388,0.734,2.674,1.936,3.377l30.973,18.186
		l2.096,29.19l-14.777-8.171c-1.213-0.673-2.693-0.654-3.883,0.054c-1.193,0.704-1.928,1.989-1.928,3.374v16.353l-24.394-16.708
		v-35.694c0-1.377-0.723-2.651-1.901-3.359l-14.238-8.538c-1.212-0.727-2.72-0.742-3.948-0.05c-1.228,0.696-1.985,1.997-1.985,3.408
		v30.942l-16.196-9.41c-0.918-0.536-2.023-0.677-3.049-0.378c-1.025,0.294-1.89,0.998-2.383,1.943l-7.123,13.549
		c-0.956,1.817-0.344,4.066,1.4,5.148l15.025,9.322l-27.006,15.271c-1.212,0.685-1.97,1.966-1.989,3.358
		c-0.019,1.393,0.708,2.693,1.901,3.409l14.245,8.545c1.193,0.723,2.682,0.746,3.906,0.073l33.077-18.22l26.211,13.477
		l-14.674,8.117c-1.235,0.685-2.008,1.982-2.02,3.397c-0.012,1.412,0.738,2.724,1.966,3.428l14.682,8.438l-26.188,12.727
		l-33.165-16.923c-1.213-0.62-2.667-0.563-3.822,0.149l-12.818,7.842c-1.167,0.715-1.878,1.989-1.871,3.358
		c0.008,1.37,0.727,2.636,1.901,3.34l26.195,15.71l-16.089,8.829c-0.911,0.498-1.588,1.343-1.878,2.345
		c-0.287,0.998-0.168,2.073,0.337,2.983l7.107,12.83c0.505,0.914,1.354,1.587,2.36,1.871c0.991,0.283,2.073,0.161,2.987-0.352
		l16.969-9.548v30.346c0,1.385,0.73,2.667,1.924,3.374c1.186,0.7,2.667,0.727,3.883,0.057l14.237-7.834
		c1.251-0.688,2.027-2,2.027-3.431v-34.99l24.394-16.846v15.871c0,1.377,0.723,2.651,1.901,3.358c1.174,0.704,2.636,0.742,3.856,0.1
		l14.846-7.896l-2.108,29.474l-30.923,17.489c-1.228,0.696-1.989,1.997-1.989,3.409v2.54c20.125-7.743,38.975-18.029,56.177-30.472
		l-1.893-22.229l13.774,7.65c1.217,0.673,2.693,0.654,3.887-0.05c1.197-0.704,1.932-1.985,1.932-3.374v-15.875l12.249,8.458
		c5.045-5.03,9.842-10.305,14.44-15.752l-17.727-8.553l14.659-8.423c1.228-0.704,1.978-2.016,1.966-3.428
		c-0.011-1.415-0.784-2.712-2.02-3.397l-14.651-8.102l26.429-13.484l16.64,9.356c3.718-6.434,7.157-13.041,10.297-19.823
		l-3.293-1.863l5.604-3.251C478.334,340.715,480.806,334.262,483.028,327.694z"/>
</g>
<g style="opacity:0.5;">
	<path style="fill:#E4F2F4;" d="M404.775,55.78c-5.987-4.885-12.195-9.502-18.625-13.82c-26.371-17.696-56.319-30.472-88.535-37.002
		c-0.987-0.199-1.997-0.344-2.988-0.532C279.544,1.561,263.995,0,248.078,0c-19.884,0-39.193,2.406-57.723,6.824
		c-6.694,1.595-13.277,3.455-19.746,5.581c-28.032,9.211-53.844,23.277-76.471,41.209c-10.917,8.657-21.115,18.17-30.426,28.51
		c-19.382,21.521-35.009,46.469-45.953,73.8c10.458,18.847,29.382,32.675,52.406,35.602c20.603,2.616,40.204-4.055,54.743-16.678
		c10.719,11.215,25.193,18.981,41.783,21.092c14.498,1.84,28.514-0.899,40.617-7.073c10.982,14.494,27.538,24.75,47.001,27.224
		c27.507,3.493,53.244-9.509,67.462-31.252c9.548,7.375,21.081,12.439,33.915,14.069c22.863,2.904,44.491-5.607,59.33-21.031
		c24.237-1.955,45.528-16.475,56.502-37.698C455.639,107.36,432.737,78.59,404.775,55.78z"/>
</g>
<g>
	<path style="fill:#E4F2F4;" d="M97.936,240.191c-9.341,0-16.919,7.574-16.919,16.919c0,9.341,7.578,16.916,16.919,16.916
		c9.345,0,16.919-7.574,16.919-16.916C114.855,247.766,107.281,240.191,97.936,240.191z"/>
	<circle style="fill:#E4F2F4;" cx="248.711" cy="257.111" r="16.917"/>
	<path style="fill:#E4F2F4;" d="M172.33,240.191c-9.341,0-16.916,7.574-16.916,16.919c0,9.341,7.574,16.916,16.916,16.916
		c9.345,0,16.919-7.574,16.919-16.916C189.248,247.766,181.675,240.191,172.33,240.191z"/>
	<path style="fill:#E4F2F4;" d="M57.786,305.802c-9.341,0-16.919,7.574-16.919,16.919c0,9.341,7.578,16.916,16.919,16.916
		c9.345,0,16.919-7.574,16.919-16.916C74.706,313.376,67.131,305.802,57.786,305.802z"/>
	<circle style="fill:#E4F2F4;" cx="208.561" cy="322.721" r="16.917"/>
	<path style="fill:#E4F2F4;" d="M132.18,305.802c-9.341,0-16.915,7.574-16.915,16.919c0,9.341,7.574,16.916,16.915,16.916
		c9.345,0,16.919-7.574,16.919-16.916C149.099,313.376,141.525,305.802,132.18,305.802z"/>
	<path style="fill:#E4F2F4;" d="M174.288,369.814c-9.341,0-16.915,7.574-16.915,16.919c0,9.341,7.574,16.916,16.915,16.916
		c9.345,0,16.919-7.574,16.919-16.916C191.207,377.388,183.633,369.814,174.288,369.814z"/>
	<path style="fill:#E4F2F4;" d="M97.905,369.814c-9.341,0-16.915,7.574-16.915,16.919c0,9.341,7.574,16.916,16.915,16.916
		c9.345,0,16.919-7.574,16.919-16.916C114.825,377.388,107.25,369.814,97.905,369.814z"/>
</g>
<g style="opacity:0.5;">
	<path style="fill:#E4F2F4;" d="M372.953,33.75c-5.662-3.305-11.43-6.45-17.363-9.307c-14.02-6.751-28.781-12.195-44.113-16.234
		c-0.788-0.21-1.576-0.42-2.368-0.62c-15.423-3.905-31.417-6.373-47.838-7.233C256.899,0.127,252.503,0,248.078,0
		c-11.801,0-23.395,0.88-34.756,2.475c-21.834,3.064-42.77,8.924-62.397,17.286c-0.952,0.406-1.878,0.861-2.827,1.282
		c-8.684,3.825-17.095,8.136-25.224,12.898C95.485,49.988,71.466,71.13,52.091,96.083c-0.708,0.906-1.442,1.794-2.134,2.712
		c0.907,0.367,1.855,0.654,2.785,0.987c5.906,31.172,31.987,55.818,65.133,58.396c14.979,1.163,29.236-2.353,41.354-9.303
		c12.004,14.333,29.52,24.034,49.629,25.599c28.421,2.204,54.2-12.439,67.707-35.483c10.175,7.1,22.274,11.717,35.537,12.75
		c23.621,1.836,45.406-7.995,59.865-24.577c26.857-3.489,49.43-21.942,58.446-47.253C413.714,61.816,394.347,46.244,372.953,33.75z"
		/>
</g>
<path style="fill:#E4F2F4;" d="M248.077,0C173.404,0,106.489,33.039,61.011,85.242c4.104-0.379,8.117-1.075,12.012-2.077
	c12.554,23.02,36.967,38.639,65.037,38.639c18.732,0,35.789-7.012,48.83-18.483c13.04,11.472,30.097,18.483,48.833,18.483
	c32.117,0,59.379-20.488,69.627-49.082c12.271,9.031,27.377,14.433,43.784,14.433c23.881,0,45.058-11.354,58.595-28.904
	C364.579,21.923,308.898,0,248.077,0z"/>
<g>
</g>
<g>
</g>
<g>
</g>
<g>
</g>
<g>
</g>
<g>
</g>
<g>
</g>
<g>
</g>
<g>
</g>
<g>
</g>
<g>
</g>
<g>
</g>
<g>
</g>
<g>
</g>
<g>
</g>
</svg>
