<?xml version="1.0" encoding="iso-8859-1"?>
<!-- Generator: Adobe Illustrator 19.0.0, SVG Export Plug-In . SVG Version: 6.00 Build 0)  -->
<svg version="1.1" id="Layer_1" xmlns="http://www.w3.org/2000/svg" xmlns:xlink="http://www.w3.org/1999/xlink" x="0px" y="0px"
	 viewBox="0 0 496.162 496.162" style="enable-background:new 0 0 496.162 496.162;" xml:space="preserve">
<path style="fill:#334D5C;" d="M248.077,0C111.072,0,0.002,111.062,0.002,248.083c0,137.005,111.07,248.079,248.075,248.079
	c137.013,0,248.083-111.074,248.083-248.079C496.16,111.062,385.09,0,248.077,0z"/>
<path style="fill:#1A5437;" d="M24.021,354.704c39.878,83.651,125.219,141.458,224.056,141.458
	c98.779,0,184.071-57.727,223.984-141.286L24.021,354.704z"/>
<g>
	<path style="fill:#BFAC00;" d="M326.931,183.995c-0.226-0.914-0.922-1.633-1.828-1.886l-64.31-17.91
		c-1.09-0.306-2.253,0.134-2.869,1.079l-70.825,108.27c-0.52,0.795-0.562,1.817-0.107,2.658c0.452,0.838,1.328,1.362,2.284,1.362
		h43.55l-42.353,54.831c-0.604,0.784-0.711,1.844-0.275,2.735c0.44,0.887,1.343,1.45,2.333,1.45h34.707l-43.795,55.722
		c-0.822,1.044-0.723,2.54,0.229,3.466c0.501,0.49,1.159,0.738,1.813,0.738c0.589,0,1.175-0.199,1.657-0.597l100.375-83.126
		c0.845-0.7,1.159-1.852,0.788-2.88c-0.371-1.033-1.351-1.721-2.444-1.721l-31.482,0.003l50.046-60.049
		c0.646-0.772,0.784-1.851,0.355-2.766c-0.424-0.914-1.343-1.496-2.353-1.496h-37.594l61.349-57.371
		C326.866,185.865,327.153,184.905,326.931,183.995z"/>
	<path style="fill:#BFAC00;" d="M176.859,170.231c-0.142-0.574-0.582-1.025-1.152-1.186l-40.421-11.257
		c-0.685-0.191-1.415,0.084-1.805,0.681L88.966,226.52c-0.329,0.501-0.355,1.144-0.069,1.672c0.283,0.528,0.838,0.856,1.435,0.856
		h27.374l-26.62,34.462c-0.378,0.493-0.447,1.159-0.172,1.721c0.275,0.559,0.845,0.911,1.469,0.911h21.812l-27.526,35.024
		c-0.517,0.658-0.455,1.595,0.146,2.18c0.313,0.306,0.727,0.463,1.14,0.463c0.367,0,0.738-0.126,1.041-0.375l63.09-52.25
		c0.532-0.439,0.727-1.167,0.497-1.813c-0.237-0.646-0.849-1.079-1.538-1.079h-19.788l31.455-37.744
		c0.406-0.486,0.494-1.163,0.226-1.737s-0.845-0.941-1.48-0.941h-23.629l38.559-36.061
		C176.816,171.41,176.997,170.805,176.859,170.231z"/>
	<path style="fill:#BFAC00;" d="M437.997,170.231c-0.142-0.574-0.582-1.025-1.151-1.186l-40.421-11.257
		c-0.685-0.191-1.416,0.084-1.806,0.681l-44.514,68.051c-0.329,0.501-0.356,1.144-0.069,1.672c0.283,0.528,0.837,0.856,1.434,0.856
		h27.374l-26.62,34.462c-0.379,0.493-0.448,1.159-0.172,1.721c0.275,0.559,0.845,0.911,1.469,0.911h21.812l-27.527,35.024
		c-0.516,0.658-0.455,1.595,0.146,2.18c0.313,0.306,0.727,0.463,1.14,0.463c0.367,0,0.738-0.126,1.04-0.375l63.09-52.25
		c0.532-0.439,0.727-1.167,0.498-1.813c-0.237-0.646-0.849-1.079-1.538-1.079h-19.788l31.455-37.744
		c0.405-0.486,0.493-1.163,0.226-1.737c-0.268-0.574-0.846-0.941-1.48-0.941h-23.628l38.559-36.061
		C437.955,171.41,438.135,170.805,437.997,170.231z"/>
</g>
<path style="fill:#496370;" d="M404.775,55.78c-5.987-4.885-12.195-9.502-18.625-13.82c-26.367-17.696-56.315-30.472-88.535-37.002
	c-0.987-0.199-1.993-0.344-2.984-0.532C279.545,1.561,263.999,0,248.078,0c-19.884,0-39.193,2.406-57.723,6.824
	c-6.69,1.595-13.273,3.455-19.746,5.581c-28.032,9.211-53.844,23.277-76.471,41.209c-10.914,8.657-21.112,18.17-30.426,28.51
	c-19.382,21.521-35.005,46.469-45.953,73.801c10.462,18.847,29.382,32.675,52.406,35.602c20.603,2.616,40.204-4.055,54.743-16.678
	c10.719,11.215,25.197,18.981,41.787,21.092c14.494,1.84,28.514-0.899,40.617-7.073c10.979,14.494,27.534,24.75,47.001,27.224
	c27.503,3.493,53.244-9.509,67.458-31.252c9.548,7.375,21.081,12.439,33.918,14.069c22.86,2.904,44.492-5.607,59.326-21.031
	c24.24-1.955,45.528-16.475,56.502-37.698C455.643,107.36,432.737,78.59,404.775,55.78z"/>
<g style="opacity:0.3;">
	<path style="fill:#243D49;" d="M372.953,33.75c-5.662-3.305-11.426-6.45-17.363-9.307c-14.02-6.751-28.781-12.195-44.113-16.234
		c-0.788-0.21-1.572-0.42-2.364-0.62c-15.427-3.905-31.42-6.373-47.842-7.233C256.902,0.127,252.503,0,248.078,0
		c-11.801,0-23.392,0.88-34.756,2.475c-21.834,3.064-42.77,8.924-62.394,17.286c-0.953,0.406-1.882,0.861-2.831,1.282
		c-8.68,3.825-17.095,8.136-25.22,12.898C95.488,49.988,71.469,71.13,52.09,96.083c-0.708,0.906-1.438,1.794-2.134,2.712
		c0.91,0.367,1.859,0.654,2.785,0.987c5.906,31.172,31.987,55.818,65.136,58.396c14.98,1.163,29.236-2.353,41.355-9.303
		c12.003,14.333,29.516,24.034,49.629,25.599c28.417,2.204,54.196-12.439,67.707-35.483c10.175,7.1,22.271,11.717,35.533,12.75
		c23.621,1.836,45.406-7.995,59.865-24.577c26.857-3.489,49.43-21.942,58.446-47.253C413.714,61.816,394.351,46.244,372.953,33.75z"
		/>
</g>
<path style="fill:#334D5C;" d="M248.077,0C173.408,0,106.493,33.039,61.014,85.242c4.101-0.379,8.117-1.075,12.011-2.077
	c12.555,23.02,36.967,38.639,65.033,38.639c18.732,0,35.793-7.012,48.83-18.483c13.04,11.472,30.101,18.483,48.833,18.483
	c32.117,0,59.379-20.488,69.631-49.082c12.271,9.031,27.377,14.433,43.78,14.433c23.881,0,45.062-11.354,58.599-28.904
	C364.579,21.923,308.898,0,248.077,0z"/>
<g>
</g>
<g>
</g>
<g>
</g>
<g>
</g>
<g>
</g>
<g>
</g>
<g>
</g>
<g>
</g>
<g>
</g>
<g>
</g>
<g>
</g>
<g>
</g>
<g>
</g>
<g>
</g>
<g>
</g>
</svg>
