<?xml version="1.0" encoding="iso-8859-1"?>
<!-- Generator: Adobe Illustrator 16.0.0, SVG Export Plug-In . SVG Version: 6.00 Build 0)  -->
<!DOCTYPE svg PUBLIC "-//W3C//DTD SVG 1.1//EN" "http://www.w3.org/Graphics/SVG/1.1/DTD/svg11.dtd">
<svg version="1.1" id="Capa_1" xmlns="http://www.w3.org/2000/svg" xmlns:xlink="http://www.w3.org/1999/xlink" x="0px" y="0px"
	 width="418.06px" height="418.059px" viewBox="0 0 418.06 418.059" style="enable-background:new 0 0 418.06 418.059;"
	 xml:space="preserve">
<g>
	<g>
		<path d="M367.348,234.786c-44.676-51.409-114.444-31.825-170.136-13.465c-32.436,10.404-65.484,22.645-100.368,23.257
			c-44.064,0.611-70.992-32.437-89.352-68.545c-1.836-3.672-8.568-1.224-7.344,3.06c25.704,67.932,77.724,88.741,145.656,72.216
			c70.379-17.136,148.715-65.484,212.364-7.956C364.287,249.473,372.855,240.905,367.348,234.786z"/>
		<path d="M383.871,201.737c-46.512-56.916-114.443-44.676-177.479-24.48c-33.66,11.016-67.32,24.48-103.428,26.928
			c-41.004,3.06-67.32-21.42-83.844-56.916c-1.836-4.284-9.792-1.224-7.956,3.06c62.424,170.749,264.995-58.752,362.304,60.589
			C380.199,218.261,389.38,208.469,383.871,201.737z"/>
		<path d="M388.155,156.449c-5.508-6.12-15.3,1.836-11.016,8.568c13.464,20.808,39.78,52.021,17.136,75.888
			c-18.359,19.584-55.691,20.809-80.784,21.421c-6.731,0-6.731,10.403,0,10.403c31.212,0.612,74.053,0,95.473-26.315
			C431.607,218.874,407.128,177.869,388.155,156.449z"/>
	</g>
</g>
<g>
</g>
<g>
</g>
<g>
</g>
<g>
</g>
<g>
</g>
<g>
</g>
<g>
</g>
<g>
</g>
<g>
</g>
<g>
</g>
<g>
</g>
<g>
</g>
<g>
</g>
<g>
</g>
<g>
</g>
</svg>
